<svg xml:space="preserve" viewBox="0 0 100 100" y="0" x="0" xmlns="http://www.w3.org/2000/svg" id="Layer_1" version="1.1" preserveAspectRatio="xMidYMid" width="200" height="200" xmlns:xlink="http://www.w3.org/1999/xlink" style="margin-top:0px;margin-right:0px;margin-bottom:0px;margin-left:0px;display:block;shape-rendering:auto;background-position-x:0%;background-position-y:0%;background-size:auto;background-origin:padding-box;background-clip:border-box;fill:rgb(0, 0, 0);stroke:none;transform:none;opacity:1;background:scroll none  repeat;width:200px;height:200px;;animation:none"><g class="ldl-scale" style="transform-origin:50px 50px;transform:matrix(0.8, 0, 0, 0.8, 0, 0);fill:rgb(0, 0, 0);stroke:none;opacity:1;;animation:none"><g class="ldl-ani" style="fill:rgb(0, 0, 0);stroke:none;transform:none;opacity:1;;animation:none"><g class="ldl-layer" style="fill:rgb(0, 0, 0);stroke:none;transform:none;opacity:1;;animation:none"><g class="ldl-ani" style="opacity:1;transform-origin:50px 50px;transform:matrix(1.00333, 0, 0, 1.00333, 0, 0);animation-name:animate;animation-duration:1s;animation-timing-function:linear;animation-delay:-0.666667s;animation-iteration-count:infinite;animation-direction:normal;animation-fill-mode:forwards;animation-play-state:paused;transform-box:view-box;fill:rgb(0, 0, 0);stroke:none;;animation:none"><path fill="#f7b26a" d="M88.7 71.8c-3.6 5.6-8.4 10.3-14 13.7-5.6 3.4-11.9 5.4-18.2 5.9l-2.4.1h-2.4c-1.6 0-3.2-.2-4.7-.4-3.1-.4-6.2-1.3-9.1-2.4-5.8-2.3-11-5.9-15.1-10.4 4.5 4.1 9.9 7.1 15.7 8.7 2.9.8 5.8 1.3 8.8 1.4 1.5.1 2.9.1 4.4-.1.7-.1 1.5-.1 2.2-.2l2.2-.3c5.7-1.1 11.2-3.4 15.7-6.8 4.6-3.4 8.3-7.9 10.8-12.8.9-1.7 3-2.4 4.8-1.5 1.7.9 2.4 3 1.5 4.8-.1 0-.1.1-.2.3z" style="stroke-width:1px;fill:rgb(229, 0, 190);stroke:none;transform:none;opacity:1;;animation:none"></path></g></g>
<g class="ldl-layer" style="fill:rgb(0, 0, 0);stroke:none;transform:none;opacity:1;;animation:none"><g class="ldl-ani" style="opacity:1;transform-origin:50px 50px;transform:matrix(0.935119, 0, 0, 0.935119, 0, 0);animation-name:animate;animation-duration:1s;animation-timing-function:linear;animation-delay:-0.833333s;animation-iteration-count:infinite;animation-direction:normal;animation-fill-mode:forwards;animation-play-state:paused;transform-box:view-box;fill:rgb(0, 0, 0);stroke:none;;animation:none"><path fill="#e15c64" d="M50.7 6.5c-2 .1-3.5 1.8-3.4 3.7.1 2 1.8 3.5 3.7 3.4 5.6-.3 11.2.7 16.5 3 1.3.5 2.6 1.2 3.8 1.9.6.3 1.2.7 1.8 1.1l1.8 1.2 1.7 1.4c.5.5 1.2.9 1.6 1.4 1 1 2.1 2 3 3.2 3.8 4.4 6.6 9.8 8.1 15.6l.4 2.2c.1.7.3 1.5.4 2.2.1 1.5.4 3 .4 4.5 0 3-.3 6.1-.9 9 .9-2.9 1.5-5.9 1.8-9 .2-1.5.1-3.1.1-4.6 0-.8-.1-1.5-.2-2.3l-.2-2.4c-.9-6.2-3.4-12.2-7-17.4-.8-1.4-1.9-2.5-2.9-3.8-.5-.6-1.1-1.2-1.7-1.7l-1.7-1.7-1.9-1.5c-.6-.5-1.2-1-1.9-1.5-1.3-.9-2.7-1.9-4.1-2.6-5.7-3.1-12.2-5-18.8-5.3h-.4z" style="stroke-width:1px;fill:rgb(52, 191, 73);stroke:none;transform:none;opacity:1;;animation:none"></path></g></g>
<g class="ldl-layer" style="fill:rgb(0, 0, 0);stroke:none;transform:none;opacity:1;;animation:none"><g class="ldl-ani" style="opacity:1;transform-origin:50px 50px;transform:matrix(0.91, 0, 0, 0.91, 0, 0);animation-name:animate;animation-duration:1s;animation-timing-function:linear;animation-delay:-1s;animation-iteration-count:infinite;animation-direction:normal;animation-fill-mode:forwards;animation-play-state:paused;transform-box:view-box;fill:rgb(0, 0, 0);stroke:none;;animation:none"><path fill="#f47e5f" d="M32 14.4c-2.8 1.4-5.5 2.9-7.9 4.9l-.9.7-.9.8c-.6.5-1.2 1-1.7 1.6-1.1 1.2-2.2 2.3-3.1 3.5-1 1.2-1.9 2.5-2.7 3.9l-1.2 2.1L13 33c-.2.4-.3.7-.5 1.1l-1 2.2-.8 2.3c-.3.8-.5 1.5-.7 2.3-.2.8-.4 1.6-.6 2.3-.3 1.6-.6 3.2-.7 4.8-.2 1.6-.3 3.2-.2 4.9.1 6.5 1.8 13.1 4.9 19 .1.1.1.2.2.3 1.1 1.6 3.3 2.1 4.9 1 1.6-1.1 2.1-3.3 1-4.9-3-4.7-5-10.1-5.7-15.7-.2-1.4-.2-2.8-.2-4.3-.1-1.4.1-2.9.2-4.3l.3-2.1c.1-.7.2-1.4.4-2.1l.5-2.1.7-2.1c.1-.3.2-.7.4-1l.4-1c.3-.7.6-1.4.9-2 .7-1.3 1.3-2.6 2.2-3.8.8-1.3 1.7-2.4 2.6-3.6.5-.6 1-1.1 1.5-1.7l.7-.8.8-.8c2.1-2.1 4.6-3.9 7.1-5.5 2.6-1.6 5.4-2.8 8.3-3.8-2.9.5-5.8 1.4-8.6 2.8z" style="stroke-width:1px;fill:rgb(255,826, 76);stroke:none;transform:none;opacity:1;;animation:none"></path></g></g>
<metadata xmlns:d="https://loading.io/stock/" style="fill:rgb(0, 0, 0);stroke:none;transform:none;opacity:1;;animation:none"></metadata></g></g>
<STYLE type="text/css">@keyframes animate { 0.00% {transform: translate(0.00px,0.00px) rotate(0.00deg) scale(0.91, 0.91) skew(0deg, 0.00deg) ;opacity: 1.00;}4.00% {transform: translate(0.00px,0.00px) rotate(0.00deg) scale(0.91, 0.91) ;}8.00% {animation-timing-function: cubic-bezier(0.69,0.60,0.35,0.27);transform: translate(0.00px,0.00px) rotate(0.00deg) scale(0.91, 0.91) ;}14.00% {transform: translate(0.00px,0.00px) rotate(0.00deg) scale(0.93, 0.93) ;}18.00% {transform: translate(0.00px,0.00px) rotate(0.00deg) scale(0.94, 0.94) ;}22.00% {animation-timing-function: cubic-bezier(0.67,0.66,0.34,0.33);transform: translate(0.00px,0.00px) rotate(0.00deg) scale(0.96, 0.96) ;}26.00% {transform: translate(0.00px,0.00px) rotate(0.00deg) scale(0.97, 0.97) ;}30.00% {transform: translate(0.00px,0.00px) rotate(0.00deg) scale(0.99, 0.99) ;}34.00% {animation-timing-function: cubic-bezier(0.65,0.71,0.32,0.38);transform: translate(0.00px,0.00px) rotate(0.00deg) scale(1.01, 1.01) ;}40.00% {animation-timing-function: cubic-bezier(0.64,0.74,0.31,0.41);transform: translate(0.00px,0.00px) rotate(0.00deg) scale(1.02, 1.02) ;}46.00% {animation-timing-function: cubic-bezier(0.60,0.91,0.23,0.63);transform: translate(0.00px,0.00px) rotate(0.00deg) scale(1.03, 1.03) ;}50.00% {transform: translate(0.00px,0.00px) rotate(0.00deg) scale(1.03, 1.03) ;}54.00% {transform: translate(0.00px,0.00px) rotate(0.00deg) scale(1.03, 1.03) ;}58.00% {animation-timing-function: cubic-bezier(0.69,0.60,0.35,0.27);transform: translate(0.00px,0.00px) rotate(0.00deg) scale(1.03, 1.03) ;}64.00% {transform: translate(0.00px,0.00px) rotate(0.00deg) scale(1.01, 1.01) ;}68.00% {transform: translate(0.00px,0.00px) rotate(0.00deg) scale(1.00, 1.00) ;}72.00% {animation-timing-function: cubic-bezier(0.67,0.66,0.34,0.33);transform: translate(0.00px,0.00px) rotate(0.00deg) scale(0.98, 0.98) ;}76.00% {animation-timing-function: cubic-bezier(0.66,0.68,0.33,0.35);transform: translate(0.00px,0.00px) rotate(0.00deg) scale(0.97, 0.97) ;}82.00% {animation-timing-function: cubic-bezier(0.65,0.71,0.32,0.38);transform: translate(0.00px,0.00px) rotate(0.00deg) scale(0.94, 0.94) ;}88.00% {animation-timing-function: cubic-bezier(0.65,0.73,0.31,0.40);transform: translate(0.00px,0.00px) rotate(0.00deg) scale(0.92, 0.92) ;}94.00% {animation-timing-function: cubic-bezier(0.63,0.80,0.28,0.48);transform: translate(0.00px,0.00px) rotate(0.00deg) scale(0.91, 0.91) ;}100.00% {animation-timing-function: cubic-bezier(0.63,0.80,0.28,0.48);transform: translate(0.00px,0.00px) rotate(0.00deg) scale(0.91, 0.91) ;} }</STYLE><!-- [ldio] generated by https://loading.io --></svg>